<?xml version="1.0" standalone="no"?>
<svg xmlns:xlink="http://www.w3.org/1999/xlink" id="wave" style="transform:rotate(180deg); transition: 0.3s" viewBox="0 0 1440 100" version="1.1" xmlns="http://www.w3.org/2000/svg"><defs><linearGradient id="sw-gradient-0" x1="0" x2="0" y1="1" y2="0"><stop stop-color="rgba(255, 233, 239, 1)" offset="0%"/><stop stop-color="rgba(255, 233, 239, 1)" offset="100%"/></linearGradient></defs><path style="transform:translate(0, 0px); opacity:1" fill="url(#sw-gradient-0)" d="M0,30L24,28.3C48,27,96,23,144,21.7C192,20,240,20,288,26.7C336,33,384,47,432,50C480,53,528,47,576,51.7C624,57,672,73,720,66.7C768,60,816,30,864,18.3C912,7,960,13,1008,13.3C1056,13,1104,7,1152,18.3C1200,30,1248,60,1296,65C1344,70,1392,50,1440,35C1488,20,1536,10,1584,18.3C1632,27,1680,53,1728,63.3C1776,73,1824,67,1872,63.3C1920,60,1968,60,2016,56.7C2064,53,2112,47,2160,46.7C2208,47,2256,53,2304,51.7C2352,50,2400,40,2448,38.3C2496,37,2544,43,2592,51.7C2640,60,2688,70,2736,61.7C2784,53,2832,27,2880,13.3C2928,0,2976,0,3024,13.3C3072,27,3120,53,3168,61.7C3216,70,3264,60,3312,46.7C3360,33,3408,17,3432,8.3L3456,0L3456,100L3432,100C3408,100,3360,100,3312,100C3264,100,3216,100,3168,100C3120,100,3072,100,3024,100C2976,100,2928,100,2880,100C2832,100,2784,100,2736,100C2688,100,2640,100,2592,100C2544,100,2496,100,2448,100C2400,100,2352,100,2304,100C2256,100,2208,100,2160,100C2112,100,2064,100,2016,100C1968,100,1920,100,1872,100C1824,100,1776,100,1728,100C1680,100,1632,100,1584,100C1536,100,1488,100,1440,100C1392,100,1344,100,1296,100C1248,100,1200,100,1152,100C1104,100,1056,100,1008,100C960,100,912,100,864,100C816,100,768,100,720,100C672,100,624,100,576,100C528,100,480,100,432,100C384,100,336,100,288,100C240,100,192,100,144,100C96,100,48,100,24,100L0,100Z"/></svg>