<?xml version="1.0" standalone="no"?>
<svg xmlns:xlink="http://www.w3.org/1999/xlink" id="wave" style="transform:rotate(0deg); transition: 0.3s" viewBox="0 0 1440 100" version="1.1" xmlns="http://www.w3.org/2000/svg"><defs><linearGradient id="sw-gradient-0" x1="0" x2="0" y1="1" y2="0"><stop stop-color="rgba(142, 68, 154, 1)" offset="0%"/><stop stop-color="rgba(142, 68, 154, 1)" offset="100%"/></linearGradient></defs><path style="transform:translate(0, 0px); opacity:1" fill="url(#sw-gradient-0)" d="M0,10L24,10C48,10,96,10,144,13.3C192,17,240,23,288,35C336,47,384,63,432,60C480,57,528,33,576,25C624,17,672,23,720,33.3C768,43,816,57,864,60C912,63,960,57,1008,51.7C1056,47,1104,43,1152,50C1200,57,1248,73,1296,71.7C1344,70,1392,50,1440,48.3C1488,47,1536,63,1584,61.7C1632,60,1680,40,1728,35C1776,30,1824,40,1872,40C1920,40,1968,30,2016,28.3C2064,27,2112,33,2160,41.7C2208,50,2256,60,2304,66.7C2352,73,2400,77,2448,78.3C2496,80,2544,80,2592,78.3C2640,77,2688,73,2736,73.3C2784,73,2832,77,2880,73.3C2928,70,2976,60,3024,51.7C3072,43,3120,37,3168,38.3C3216,40,3264,50,3312,45C3360,40,3408,20,3432,10L3456,0L3456,100L3432,100C3408,100,3360,100,3312,100C3264,100,3216,100,3168,100C3120,100,3072,100,3024,100C2976,100,2928,100,2880,100C2832,100,2784,100,2736,100C2688,100,2640,100,2592,100C2544,100,2496,100,2448,100C2400,100,2352,100,2304,100C2256,100,2208,100,2160,100C2112,100,2064,100,2016,100C1968,100,1920,100,1872,100C1824,100,1776,100,1728,100C1680,100,1632,100,1584,100C1536,100,1488,100,1440,100C1392,100,1344,100,1296,100C1248,100,1200,100,1152,100C1104,100,1056,100,1008,100C960,100,912,100,864,100C816,100,768,100,720,100C672,100,624,100,576,100C528,100,480,100,432,100C384,100,336,100,288,100C240,100,192,100,144,100C96,100,48,100,24,100L0,100Z"/></svg>